<svg width="40" height="40" viewBox="0 0 40 40" fill="none" xmlns="http://www.w3.org/2000/svg">
<rect width="40" height="40" rx="8" fill="#FDEFF0"/>
<path d="M30.5591 20.3121L30.5182 20.227C29.1682 18.6103 27.1636 17.6743 25.1182 17.6743C24.9546 17.6743 24.8727 17.802 24.8727 17.9296L24.7909 23.418H10.4727C10.35 23.4605 10.2273 23.5881 10.2273 23.7158V25.9281C10.2273 26.0983 10.35 26.1834 10.4727 26.1834H31.2545C31.4182 26.1834 31.5 26.0558 31.5 25.9281V22.8649C31.5 21.9289 31.1727 21.0354 30.5591 20.3121Z" fill="#FBB040"/>
<path d="M21.9273 11.25H11.0864C9.94091 11.25 9 12.2285 9 13.4198V20.61C9 21.7587 9.94091 22.7373 11.0864 22.7373H21.9682C23.1136 22.7373 24.0545 21.7587 24.0545 20.5675V13.4198C24.0136 12.2285 23.0727 11.25 21.9273 11.25Z" fill="url(#paint0_linear_48_1485)"/>
<g clip-path="url(#clip0_48_1485)">
<path opacity="0.9" d="M17.0183 15L13.4128 18.8684L11.9908 17.3388L11 18.4046L13.4128 21L18 16.0658L17.0183 15Z" fill="#FBB040"/>
</g>
<path d="M27.8183 28.0129C28.722 28.0129 29.4546 27.251 29.4546 26.3111C29.4546 25.3712 28.722 24.6093 27.8183 24.6093C26.9145 24.6093 26.1819 25.3712 26.1819 26.3111C26.1819 27.251 26.9145 28.0129 27.8183 28.0129Z" fill="#013177"/>
<path d="M27.8183 28.3958C26.7137 28.3958 25.8546 27.4598 25.8546 26.3536C25.8546 25.2049 26.7546 24.3114 27.8183 24.3114C28.9228 24.3114 29.7819 25.2474 29.7819 26.3536C29.7819 27.4598 28.8819 28.3958 27.8183 28.3958ZM27.8183 24.9921C27.1228 24.9921 26.5501 25.5878 26.5501 26.311C26.5501 27.0343 27.1228 27.63 27.8183 27.63C28.5137 27.63 29.0864 27.0343 29.0864 26.311C29.0455 25.5878 28.5137 24.9921 27.8183 24.9921Z" fill="#013177"/>
<path d="M31.3773 21.8863C31.2136 21.2906 30.9682 20.7375 30.5591 20.3121L30.5182 20.227C29.5773 19.1208 28.3909 18.355 27.0409 17.9721C26.9591 17.9295 26.8773 17.9721 26.7955 18.0146C26.7136 18.0572 26.6727 18.1423 26.6727 18.2274V21.9714C26.6727 22.1416 26.7955 22.2266 26.9182 22.2266H31.0909C31.1727 22.2266 31.2546 22.1841 31.2955 22.099C31.3773 22.0565 31.4182 21.9714 31.3773 21.8863Z" fill="url(#paint1_linear_48_1485)"/>
<path d="M13.4182 28.3533C14.5027 28.3533 15.3819 27.439 15.3819 26.3111C15.3819 25.1832 14.5027 24.2689 13.4182 24.2689C12.3337 24.2689 11.4546 25.1832 11.4546 26.3111C11.4546 27.439 12.3337 28.3533 13.4182 28.3533Z" fill="#AD1426"/>
<path d="M27.8183 28.3533C28.9027 28.3533 29.7819 27.439 29.7819 26.3111C29.7819 25.1832 28.9027 24.2689 27.8183 24.2689C26.7338 24.2689 25.8546 25.1832 25.8546 26.3111C25.8546 27.439 26.7338 28.3533 27.8183 28.3533Z" fill="#AD1426"/>
<path d="M13.4181 27.7576C14.1863 27.7576 14.809 27.11 14.809 26.3111C14.809 25.5121 14.1863 24.8645 13.4181 24.8645C12.65 24.8645 12.0272 25.5121 12.0272 26.3111C12.0272 27.11 12.65 27.7576 13.4181 27.7576Z" fill="#F7B8BF"/>
<path d="M27.8182 27.7576C28.5863 27.7576 29.2091 27.11 29.2091 26.3111C29.2091 25.5121 28.5863 24.8645 27.8182 24.8645C27.05 24.8645 26.4272 25.5121 26.4272 26.3111C26.4272 27.11 27.05 27.7576 27.8182 27.7576Z" fill="#F7B8BF"/>
<defs>
<linearGradient id="paint0_linear_48_1485" x1="16.5934" y1="17.0543" x2="16.6794" y2="11.1585" gradientUnits="userSpaceOnUse">
<stop stop-color="#F32940"/>
<stop offset="0.963542" stop-color="#FF7787"/>
</linearGradient>
<linearGradient id="paint1_linear_48_1485" x1="29.0538" y1="20.1131" x2="29.0917" y2="17.9206" gradientUnits="userSpaceOnUse">
<stop stop-color="#F32940"/>
<stop offset="0.963542" stop-color="#FF7787"/>
</linearGradient>
<clipPath id="clip0_48_1485">
<rect width="7" height="6" fill="white" transform="translate(11 15)"/>
</clipPath>
</defs>
</svg>
