<svg width="40" height="40" viewBox="0 0 40 40" fill="none" xmlns="http://www.w3.org/2000/svg">
<rect width="40" height="40" rx="8" fill="#FDEFF0"/>
<path d="M30.3091 20.3121L30.2682 20.227C28.9182 18.6103 26.9137 17.6743 24.8682 17.6743C24.7046 17.6743 24.6227 17.802 24.6227 17.9296L24.5409 23.418H10.2227C10.1 23.4605 9.97729 23.5881 9.97729 23.7158V25.9281C9.97729 26.0983 10.1 26.1834 10.2227 26.1834H31.0046C31.1682 26.1834 31.25 26.0558 31.25 25.9281V22.8649C31.25 21.9289 30.9227 21.0354 30.3091 20.3121Z" fill="#FBB040"/>
<path d="M21.6773 11.25H10.8364C9.69091 11.25 8.75 12.2285 8.75 13.4198V20.61C8.75 21.7587 9.69091 22.7373 10.8364 22.7373H21.7182C22.8636 22.7373 23.8045 21.7587 23.8045 20.5675V13.4198C23.7636 12.2285 22.8227 11.25 21.6773 11.25Z" fill="url(#paint0_linear_48_165)"/>
<path d="M27.5682 28.0129C28.472 28.0129 29.2046 27.251 29.2046 26.3111C29.2046 25.3712 28.472 24.6093 27.5682 24.6093C26.6645 24.6093 25.9319 25.3712 25.9319 26.3111C25.9319 27.251 26.6645 28.0129 27.5682 28.0129Z" fill="#013177"/>
<path d="M27.5683 28.3958C26.4637 28.3958 25.6046 27.4598 25.6046 26.3536C25.6046 25.2049 26.5046 24.3114 27.5683 24.3114C28.6728 24.3114 29.5319 25.2474 29.5319 26.3536C29.5319 27.4598 28.6319 28.3958 27.5683 28.3958ZM27.5683 24.9921C26.8728 24.9921 26.3001 25.5878 26.3001 26.311C26.3001 27.0343 26.8728 27.6299 27.5683 27.6299C28.2637 27.6299 28.8364 27.0343 28.8364 26.311C28.7955 25.5878 28.2637 24.9921 27.5683 24.9921Z" fill="#013177"/>
<path d="M31.1273 21.8864C30.9636 21.2908 30.7182 20.7377 30.3091 20.3122L30.2682 20.2271C29.3273 19.1209 28.1409 18.3551 26.7909 17.9722C26.7091 17.9297 26.6273 17.9722 26.5455 18.0148C26.4636 18.0573 26.4227 18.1424 26.4227 18.2275V21.9715C26.4227 22.1417 26.5455 22.2268 26.6682 22.2268H30.8409C30.9227 22.2268 31.0045 22.1842 31.0455 22.0991C31.1273 22.0566 31.1682 21.9715 31.1273 21.8864Z" fill="url(#paint1_linear_48_165)"/>
<path d="M13.1682 28.3533C14.2527 28.3533 15.1319 27.439 15.1319 26.3111C15.1319 25.1832 14.2527 24.2689 13.1682 24.2689C12.0837 24.2689 11.2046 25.1832 11.2046 26.3111C11.2046 27.439 12.0837 28.3533 13.1682 28.3533Z" fill="#AD1426"/>
<path d="M27.5683 28.3533C28.6527 28.3533 29.5319 27.439 29.5319 26.3111C29.5319 25.1832 28.6527 24.2689 27.5683 24.2689C26.4838 24.2689 25.6046 25.1832 25.6046 26.3111C25.6046 27.439 26.4838 28.3533 27.5683 28.3533Z" fill="#AD1426"/>
<path d="M13.1683 27.7577C13.9364 27.7577 14.5592 27.1101 14.5592 26.3112C14.5592 25.5123 13.9364 24.8646 13.1683 24.8646C12.4001 24.8646 11.7773 25.5123 11.7773 26.3112C11.7773 27.1101 12.4001 27.7577 13.1683 27.7577Z" fill="#F7B8BF"/>
<path d="M27.5682 27.7577C28.3363 27.7577 28.9591 27.1101 28.9591 26.3112C28.9591 25.5123 28.3363 24.8646 27.5682 24.8646C26.8 24.8646 26.1772 25.5123 26.1772 26.3112C26.1772 27.1101 26.8 27.7577 27.5682 27.7577Z" fill="#F7B8BF"/>
<path d="M11.9465 15L11 15.9465L16.0598 21.0063L17.0063 20.0598L11.9465 15Z" fill="#FBB040"/>
<path d="M16.0598 15.0078L11 20.0676L11.9465 21.0141L17.0063 15.9544L16.0598 15.0078Z" fill="#FBB040"/>
<defs>
<linearGradient id="paint0_linear_48_165" x1="16.3434" y1="17.0543" x2="16.4294" y2="11.1585" gradientUnits="userSpaceOnUse">
<stop stop-color="#F32940"/>
<stop offset="0.963542" stop-color="#FF7787"/>
</linearGradient>
<linearGradient id="paint1_linear_48_165" x1="28.8038" y1="20.1132" x2="28.8417" y2="17.9208" gradientUnits="userSpaceOnUse">
<stop stop-color="#F32940"/>
<stop offset="0.963542" stop-color="#FF7787"/>
</linearGradient>
</defs>
</svg>
