<svg width="40" height="40" viewBox="0 0 40 40" fill="none" xmlns="http://www.w3.org/2000/svg">
<rect width="40" height="40" rx="8" fill="#FDEFF0"/>
<path d="M30.3091 20.3121L30.2682 20.227C28.9182 18.6103 26.9136 17.6743 24.8682 17.6743C24.7046 17.6743 24.6227 17.802 24.6227 17.9296L24.5409 23.418H10.2227C10.1 23.4605 9.97729 23.5881 9.97729 23.7158V25.9281C9.97729 26.0983 10.1 26.1834 10.2227 26.1834H31.0045C31.1682 26.1834 31.25 26.0558 31.25 25.9281V22.8649C31.25 21.9289 30.9227 21.0354 30.3091 20.3121Z" fill="#FBB040"/>
<path d="M21.6773 11.25H10.8364C9.69091 11.25 8.75 12.2285 8.75 13.4198V20.61C8.75 21.7587 9.69091 22.7373 10.8364 22.7373H21.7182C22.8636 22.7373 23.8045 21.7587 23.8045 20.5675V13.4198C23.7636 12.2285 22.8227 11.25 21.6773 11.25Z" fill="url(#paint0_linear_28_187)"/>
<g clip-path="url(#clip0_28_187)">
<path d="M13.9804 18.5591C13.9608 18.5 13.9019 18.4606 13.8235 18.4606H12.8823V16.1772C12.8823 16.0787 12.8039 16 12.7059 16H11.2745C11.1961 16 11.1176 16.0787 11.1176 16.1772V18.4606H10.1765C10.1176 18.4606 10.0588 18.5 10.0196 18.5591C9.99999 18.6181 9.99999 18.6969 10.0392 18.7362L11.8235 20.9409C11.8627 20.9803 11.9019 21 11.9608 21C12.0196 21 12.0588 20.9803 12.098 20.9409L13.9804 18.7362C14 18.6969 14.0196 18.6181 13.9804 18.5591Z" fill="#FBB040"/>
</g>
<path d="M27.5683 28.0129C28.472 28.0129 29.2046 27.251 29.2046 26.3111C29.2046 25.3712 28.472 24.6093 27.5683 24.6093C26.6645 24.6093 25.9319 25.3712 25.9319 26.3111C25.9319 27.251 26.6645 28.0129 27.5683 28.0129Z" fill="#013177"/>
<path d="M27.5683 28.3958C26.4637 28.3958 25.6046 27.4598 25.6046 26.3536C25.6046 25.2049 26.5046 24.3114 27.5683 24.3114C28.6728 24.3114 29.5319 25.2474 29.5319 26.3536C29.5319 27.4598 28.6319 28.3958 27.5683 28.3958ZM27.5683 24.9921C26.8728 24.9921 26.3001 25.5878 26.3001 26.311C26.3001 27.0343 26.8728 27.63 27.5683 27.63C28.2637 27.63 28.8364 27.0343 28.8364 26.311C28.7955 25.5878 28.2637 24.9921 27.5683 24.9921Z" fill="#013177"/>
<path d="M31.1273 21.8863C30.9636 21.2906 30.7182 20.7375 30.3091 20.3121L30.2682 20.227C29.3273 19.1208 28.1409 18.355 26.7909 17.9721C26.7091 17.9295 26.6273 17.9721 26.5455 18.0146C26.4636 18.0572 26.4227 18.1423 26.4227 18.2274V21.9714C26.4227 22.1416 26.5455 22.2266 26.6682 22.2266H30.8409C30.9227 22.2266 31.0046 22.1841 31.0455 22.099C31.1273 22.0565 31.1682 21.9714 31.1273 21.8863Z" fill="url(#paint1_linear_28_187)"/>
<path d="M13.1682 28.3533C14.2527 28.3533 15.1319 27.439 15.1319 26.3111C15.1319 25.1832 14.2527 24.2689 13.1682 24.2689C12.0837 24.2689 11.2046 25.1832 11.2046 26.3111C11.2046 27.439 12.0837 28.3533 13.1682 28.3533Z" fill="#AD1426"/>
<path d="M27.5683 28.3533C28.6527 28.3533 29.5319 27.439 29.5319 26.3111C29.5319 25.1832 28.6527 24.2689 27.5683 24.2689C26.4838 24.2689 25.6046 25.1832 25.6046 26.3111C25.6046 27.439 26.4838 28.3533 27.5683 28.3533Z" fill="#AD1426"/>
<path d="M13.1681 27.7576C13.9363 27.7576 14.559 27.11 14.559 26.3111C14.559 25.5121 13.9363 24.8645 13.1681 24.8645C12.4 24.8645 11.7772 25.5121 11.7772 26.3111C11.7772 27.11 12.4 27.7576 13.1681 27.7576Z" fill="#F7B8BF"/>
<path d="M27.5682 27.7576C28.3363 27.7576 28.9591 27.11 28.9591 26.3111C28.9591 25.5121 28.3363 24.8645 27.5682 24.8645C26.8 24.8645 26.1772 25.5121 26.1772 26.3111C26.1772 27.11 26.8 27.7576 27.5682 27.7576Z" fill="#F7B8BF"/>
<defs>
<linearGradient id="paint0_linear_28_187" x1="16.3434" y1="17.0543" x2="16.4294" y2="11.1585" gradientUnits="userSpaceOnUse">
<stop stop-color="#F32940"/>
<stop offset="0.963542" stop-color="#FF7787"/>
</linearGradient>
<linearGradient id="paint1_linear_28_187" x1="28.8038" y1="20.1131" x2="28.8417" y2="17.9206" gradientUnits="userSpaceOnUse">
<stop stop-color="#F32940"/>
<stop offset="0.963542" stop-color="#FF7787"/>
</linearGradient>
<clipPath id="clip0_28_187">
<rect width="4" height="5" fill="white" transform="translate(10 16)"/>
</clipPath>
</defs>
</svg>
