<svg width="56" height="56" viewBox="0 0 56 56" fill="none" xmlns="http://www.w3.org/2000/svg">
<circle cx="28" cy="28" r="28" fill="white"/>
<circle cx="28" cy="28" r="25" fill="#E52138"/>
<path d="M38.6667 16H17.3334C16.6262 16 15.9479 16.281 15.4478 16.781C14.9477 17.2811 14.6667 17.9594 14.6667 18.6667V21.3333C14.6696 21.7987 14.7941 22.2552 15.028 22.6576C15.2619 23.0599 15.597 23.394 16.0001 23.6267V37.3333C16.0001 38.0406 16.281 38.7189 16.7811 39.219C17.2812 39.719 17.9595 40 18.6667 40H37.3334C38.0407 40 38.7189 39.719 39.219 39.219C39.7191 38.7189 40.0001 38.0406 40.0001 37.3333V23.6267C40.4031 23.394 40.7382 23.0599 40.9721 22.6576C41.2061 22.2552 41.3306 21.7987 41.3334 21.3333V18.6667C41.3334 17.9594 41.0525 17.2811 40.5524 16.781C40.0523 16.281 39.374 16 38.6667 16ZM17.3334 18.6667H38.6667V21.3333H17.3334V18.6667ZM18.6667 37.3333V24H37.3334V37.3333H18.6667Z" fill="white"/>
<path d="M22.6667 26.6667H33.3334V29.3334H22.6667V26.6667Z" fill="white"/>
</svg>
